<?xml version="1.0" encoding="UTF-8" standalone="no"?>
<!DOCTYPE svg PUBLIC "-//W3C//DTD SVG 20010904//EN"
              "http://www.w3.org/TR/2001/REC-SVG-20010904/DTD/svg10.dtd">

<svg xmlns="http://www.w3.org/2000/svg"
     width="4.44444in" height="4.44444in"
     viewBox="0 0 400 400">
  <path id="Selection #2"
        fill="none" stroke="black" stroke-width="1"
        d="M 315.19,127.00
           C 317.54,134.44 319.99,144.24 320.00,152.00
             320.00,152.00 320.00,205.00 320.00,205.00
             320.00,205.00 320.00,244.00 320.00,244.00
             319.99,252.12 319.60,249.89 318.12,257.00
             313.01,281.46 300.48,302.64 281.01,318.62
             266.83,330.27 250.12,338.57 232.00,341.75
             220.24,343.81 204.23,343.00 192.00,343.00
             174.03,343.00 162.20,345.54 148.16,331.58
             129.41,312.93 138.05,278.86 163.00,270.60
             167.43,269.13 171.41,269.01 176.00,269.00
             176.00,269.00 209.00,269.00 209.00,269.00
             224.04,268.97 238.21,259.34 243.29,245.00
             244.94,240.34 244.99,236.83 245.00,232.00
             245.00,232.00 245.00,163.00 245.00,163.00
             244.97,146.16 235.80,132.01 219.00,127.63
             215.66,126.76 212.49,125.90 209.00,126.19
             204.49,126.56 198.07,128.89 194.04,130.95
             190.20,132.91 187.02,135.77 184.20,139.01
             181.94,141.63 179.95,144.86 178.49,148.00
             175.91,153.55 175.93,156.05 176.00,162.00
             176.16,173.81 183.08,180.38 188.50,190.00
             191.09,194.59 193.77,201.80 194.61,207.00
             195.24,210.83 194.06,213.36 193.28,217.00
             189.94,232.78 176.61,245.80 160.00,246.00
             154.53,246.06 149.21,246.21 144.00,244.24
             131.31,239.43 121.70,227.72 115.58,216.00
             107.34,200.23 101.03,183.04 101.00,165.00
             101.00,165.00 101.00,154.00 101.00,154.00
             101.09,146.95 102.71,138.77 104.64,132.00
             104.64,132.00 106.71,124.00 106.71,124.00
             115.53,98.37 137.73,74.12 162.00,62.31
             167.93,59.43 182.62,54.34 189.00,53.26
             189.00,53.26 197.00,52.42 197.00,52.42
             248.69,46.13 299.35,76.81 315.19,127.00 Z" />
</svg>
