<?xml version="1.0" standalone="no"?>
<!DOCTYPE svg PUBLIC "-//W3C//DTD SVG 1.1//EN" "http://www.w3.org/Graphics/SVG/1.1/DTD/svg11.dtd">
<svg width="1200px" height="1200px" version="1.1" xmlns="http://www.w3.org/2000/svg" xmlns:xlink="http://www.w3.org/1999/xlink" xml:space="preserve" style="fill-rule:evenodd;clip-rule:evenodd;stroke-linejoin:round;stroke-miterlimit:1.41421;">
    <g>
        <g>
            <path d="M1021.44,316.613C1030.85,346.394 1035.88,372.727 1038.3,418.301L1038.3,786.554C1038.26,819.056 1038.7,828.132 1032.77,856.592C1012.32,954.499 960.167,1021.28 882.234,1085.24C825.475,1131.87 758.589,1165.09 686.059,1177.82C638.987,1186.07 574.903,1182.83 525.949,1182.83C454.02,1182.83 406.667,1192.99 350.469,1137.11C275.417,1062.46 310.001,926.09 409.869,893.027C427.602,887.143 443.533,886.663 461.905,886.623L593.996,886.623C654.197,886.502 710.916,847.956 731.25,790.557C737.855,771.904 738.055,757.854 738.095,738.521L738.095,462.331C737.975,394.925 701.27,338.286 634.023,320.754C620.654,317.272 607.78,315.808 593.811,316.968C575.758,318.449 550.246,325.798 534.115,334.043C518.744,341.889 506.015,353.336 494.728,366.305C485.682,376.793 477.716,389.721 471.872,402.29C461.545,424.505 461.625,434.512 461.905,458.329C462.546,505.601 490.245,531.899 511.94,570.405C522.307,588.778 533.034,617.638 536.396,638.452C538.918,653.783 537.762,666.144 534.64,680.714C521.271,743.878 464.347,793.759 397.861,794.559C375.966,794.8 354.672,795.4 333.817,787.515C283.022,768.261 244.556,721.389 220.059,674.477C187.077,611.354 161.819,542.546 161.699,470.337L161.699,426.307C162.059,398.087 168.544,365.345 176.269,338.246L184.555,306.224C219.859,203.634 308.72,106.567 405.867,59.2946C429.603,47.7667 487.141,28.8742 512.679,24.5512L545.963,19.7074C736.499,-3.47829 923.538,98.8324 1001.45,272.059C1008.14,286.938 1016.43,300.722 1021.44,316.613Z" style="fill:rgb(170,222,0);fill-rule:nonzero;"/>
            <path d="M470.336,1185.54L464.658,1185.48L459.057,1185.33L453.527,1185.09L448.062,1184.75L442.662,1184.27L439.972,1183.99L437.302,1183.66L434.643,1183.3L431.994,1182.9L429.357,1182.46L426.728,1181.97L424.109,1181.44L421.498,1180.86L418.894,1180.24L416.298,1179.56L413.707,1178.83L411.122,1178.04L408.542,1177.2L405.967,1176.31L403.395,1175.35L400.826,1174.33L398.259,1173.25L395.695,1172.1L393.131,1170.89L390.568,1169.61L388.005,1168.26L385.44,1166.84L382.875,1165.35L380.307,1163.78L377.736,1162.14L375.162,1160.41L372.583,1158.61L369.999,1156.73L367.41,1154.76L364.813,1152.71L362.21,1150.57L359.599,1148.35L356.979,1146.03L354.349,1143.63L351.709,1141.13L349.057,1138.53L347.293,1136.75L345.57,1134.94L343.886,1133.11L342.243,1131.25L340.64,1129.38L339.078,1127.49L337.555,1125.57L336.072,1123.64L334.628,1121.68L333.224,1119.71L331.86,1117.72L330.535,1115.72L329.249,1113.69L328.002,1111.65L326.794,1109.59L325.625,1107.52L324.495,1105.43L323.403,1103.32L322.35,1101.21L321.335,1099.08L320.358,1096.93L319.419,1094.77L318.519,1092.6L317.656,1090.42L316.831,1088.23L316.043,1086.03L315.293,1083.81L314.58,1081.59L313.904,1079.35L313.263,1077.1L312.098,1072.6L311.078,1068.06L310.203,1063.5L309.472,1058.91L308.885,1054.31L308.44,1049.69L308.136,1045.05L307.972,1040.42L307.948,1035.78L308.061,1031.14L308.312,1026.5L308.698,1021.87L309.219,1017.26L309.874,1012.66L310.661,1008.08L311.581,1003.52L312.631,998.995L313.811,994.497L315.119,990.033L316.555,985.608L318.118,981.226L319.807,976.889L321.62,972.602L323.557,968.368L325.616,964.192L327.797,960.078L330.099,956.028L332.521,952.046L335.061,948.138L337.719,944.306L340.494,940.554L343.384,936.886L346.389,933.305L349.508,929.817L352.74,926.424L356.077,923.136L357.796,921.523L359.537,919.941L361.306,918.386L363.101,916.858L364.924,915.358L366.774,913.886L368.65,912.443L370.554,911.029L372.484,909.645L374.441,908.291L376.424,906.967L378.433,905.675L380.468,904.414L382.53,903.186L384.617,901.99L386.73,900.827L388.868,899.698L391.032,898.603L393.221,897.543L395.435,896.517L397.674,895.527L399.938,894.573L402.227,893.656L404.541,892.775L406.878,891.932L409.246,891.125L412.602,890.068L415.929,889.13L419.225,888.306L422.496,887.589L425.748,886.971L428.987,886.446L432.217,886.005L435.445,885.642L438.676,885.349L441.917,885.118L445.173,884.941L448.456,884.812L455.093,884.667L461.899,884.621L593.984,884.621L596.771,884.588L599.545,884.5L602.312,884.357L605.073,884.16L607.825,883.909L610.569,883.605L613.303,883.248L616.027,882.838L618.741,882.377L621.443,881.864L624.132,881.3L626.808,880.685L629.471,880.02L632.119,879.305L634.751,878.541L637.368,877.728L639.968,876.866L642.55,875.956L645.114,874.999L647.658,873.995L650.183,872.944L652.687,871.846L655.17,870.703L657.631,869.514L660.069,868.281L662.483,867.003L664.873,865.681L667.238,864.315L669.577,862.906L671.89,861.455L674.175,859.961L676.432,858.425L678.66,856.848L680.859,855.23L683.027,853.572L685.164,851.873L687.27,850.135L689.342,848.358L691.382,846.542L693.387,844.688L695.358,842.797L697.293,840.868L699.191,838.902L701.053,836.899L702.876,834.861L704.662,832.787L706.408,830.678L708.113,828.534L709.779,826.357L711.402,824.145L712.984,821.9L714.522,819.623L716.017,817.312L717.467,814.97L718.872,812.597L720.231,810.192L721.544,807.757L722.809,805.291L724.026,802.796L725.194,800.272L726.313,797.718L727.381,795.136L728.398,792.526L729.362,789.892L730.509,786.498L731.516,783.203L732.392,779.988L733.147,776.839L733.79,773.739L734.332,770.673L734.78,767.626L735.144,764.581L735.433,761.524L735.655,758.438L735.82,755.31L735.936,752.13L736.059,745.519L736.093,738.516L736.093,462.342L736.061,459.217L735.976,456.116L735.839,453.033L735.649,449.967L735.406,446.92L735.111,443.892L734.764,440.884L734.365,437.897L733.915,434.931L733.412,431.986L732.858,429.064L732.253,426.165L731.597,423.29L730.889,420.439L730.131,417.613L729.322,414.812L728.462,412.038L727.552,409.291L726.592,406.571L725.582,403.879L724.521,401.216L723.411,398.583L722.251,395.979L721.042,393.406L719.783,390.864L718.475,388.355L717.117,385.877L715.711,383.433L714.256,381.022L712.752,378.646L711.2,376.305L709.6,373.999L707.951,371.729L706.254,369.496L704.508,367.301L702.715,365.144L700.875,363.025L698.986,360.945L697.05,358.906L695.067,356.907L693.036,354.949L690.958,353.032L688.834,351.158L686.662,349.327L684.443,347.54L682.177,345.796L679.865,344.098L677.507,342.445L675.102,340.837L672.65,339.277L670.152,337.764L667.609,336.299L665.019,334.882L662.383,333.515L659.701,332.198L656.974,330.931L654.201,329.715L651.382,328.551L648.518,327.439L645.608,326.381L642.653,325.376L639.654,324.426L636.608,323.53L633.517,322.69L631.051,322.07L628.593,321.497L626.145,320.973L623.702,320.499L621.263,320.074L618.826,319.701L616.387,319.38L613.945,319.112L611.497,318.897L609.04,318.737L606.572,318.631L604.09,318.582L601.593,318.59L599.076,318.655L596.538,318.779L593.981,318.963L590.572,319.302L587.013,319.77L583.321,320.36L579.524,321.065L575.647,321.878L571.716,322.792L567.756,323.8L563.794,324.893L559.853,326.065L555.96,327.308L552.14,328.614L548.418,329.977L544.82,331.387L541.372,332.837L538.099,334.319L535.024,335.826L532.229,337.309L529.491,338.873L526.809,340.514L524.182,342.23L521.606,344.019L519.081,345.876L516.605,347.8L514.176,349.787L511.793,351.835L509.453,353.94L507.155,356.1L504.897,358.312L502.678,360.573L500.496,362.88L498.35,365.23L496.242,367.614L494.587,369.575L492.957,371.59L491.353,373.656L489.777,375.767L488.231,377.92L486.718,380.11L485.238,382.332L483.792,384.584L482.384,386.861L481.014,389.158L479.683,391.471L478.395,393.796L477.149,396.129L475.948,398.466L474.794,400.802L473.688,403.131L471.89,407.118L470.324,410.846L468.974,414.357L467.823,417.687L466.855,420.876L466.054,423.965L465.405,426.994L464.89,430.006L464.497,433.042L464.208,436.143L464.012,439.349L463.893,442.7L463.837,446.234L463.831,449.987L463.906,458.297L463.955,460.466L464.042,462.6L464.167,464.705L464.328,466.781L464.525,468.83L464.758,470.851L465.024,472.847L465.324,474.809L466.024,478.686L466.849,482.464L467.794,486.158L468.854,489.774L470.022,493.319L471.293,496.799L472.662,500.221L474.123,503.591L475.67,506.915L477.298,510.2L479.001,513.451L480.772,516.675L482.607,519.877L484.5,523.064L486.444,526.242L488.433,529.413L492.529,535.78L496.734,542.2L501.001,548.727L505.279,555.403L507.41,558.82L509.525,562.29L511.618,565.822L513.686,569.428L515.654,573.032L517.62,576.856L519.568,580.869L521.488,585.043L523.37,589.353L525.203,593.772L526.975,598.273L528.676,602.83L530.295,607.417L531.819,612.006L533.239,616.572L534.543,621.088L535.72,625.528L536.758,629.866L537.646,634.077L538.371,638.126L538.809,641.019L539.162,643.851L539.433,646.63L539.623,649.363L539.736,652.057L539.774,654.719L539.739,657.356L539.633,659.975L539.461,662.583L539.224,665.187L538.925,667.794L538.567,670.411L538.152,673.047L537.684,675.707L537.165,678.4L536.597,681.136L535.93,684.123L535.198,687.096L534.403,690.047L533.546,692.976L532.627,695.882L531.648,698.764L530.608,701.621L529.51,704.452L528.353,707.257L527.138,710.034L525.867,712.783L524.54,715.503L523.158,718.194L521.721,720.853L520.231,723.481L518.688,726.077L517.093,728.64L515.447,731.169L513.75,733.663L512.004,736.122L510.209,738.544L508.365,740.929L506.475,743.276L504.538,745.584L502.555,747.852L500.527,750.08L498.456,752.267L496.34,754.411L494.183,756.513L491.983,758.571L489.742,760.584L487.461,762.552L485.141,764.473L482.782,766.347L480.385,768.174L477.951,769.952L475.48,771.68L472.974,773.358L470.433,774.984L467.858,776.559L465.249,778.081L462.608,779.549L459.936,780.962L457.232,782.32L454.499,783.622L451.736,784.867L448.944,786.054L446.125,787.182L443.279,788.25L440.406,789.259L437.508,790.206L434.586,791.09L431.639,791.912L428.67,792.671L425.678,793.364L422.665,793.992L419.632,794.554L416.578,795.049L413.505,795.476L410.415,795.834L407.306,796.122L404.181,796.34L401.041,796.486L397.896,796.561L389.692,796.65L381.54,796.67L377.468,796.621L373.405,796.515L369.348,796.339L365.297,796.08L361.252,795.723L357.213,795.257L353.179,794.666L349.161,793.94L347.141,793.519L345.131,793.06L343.123,792.56L341.116,792.018L339.111,791.431L337.109,790.797L335.108,790.117L333.111,789.387L330.704,788.451L328.318,787.476L325.951,786.461L323.603,785.407L321.274,784.315L318.964,783.185L316.673,782.018L314.4,780.815L312.147,779.577L309.912,778.303L307.697,776.995L305.494,775.65L301.165,772.872L296.907,769.964L292.725,766.934L288.621,763.787L284.594,760.529L280.644,757.165L276.773,753.7L272.979,750.138L269.264,746.486L265.627,742.748L262.069,738.929L258.589,735.035L255.189,731.07L251.868,727.04L248.627,722.949L245.465,718.803L242.383,714.606L239.382,710.365L236.461,706.083L233.62,701.765L230.861,697.418L228.182,693.045L225.585,688.653L223.07,684.245L220.636,679.827L218.287,675.406L215.208,669.454L212.18,663.471L209.203,657.455L206.28,651.405L203.416,645.324L200.612,639.21L197.873,633.065L195.201,626.888L192.6,620.681L190.073,614.443L187.623,608.176L185.253,601.878L182.967,595.552L180.768,589.196L178.658,582.812L176.642,576.4L174.722,569.961L172.902,563.494L171.185,557.001L169.574,550.481L168.072,543.935L166.683,537.364L165.41,530.767L164.256,524.146L163.224,517.5L162.317,510.831L161.54,504.138L160.894,497.423L160.384,490.685L160.012,483.925L159.783,477.143L159.698,470.349L159.698,426.281L159.837,420.889L160.114,415.408L160.521,409.856L161.051,404.245L161.696,398.591L162.449,392.908L163.303,387.21L164.25,381.513L165.285,375.83L166.398,370.177L167.584,364.567L168.835,359.017L170.143,353.54L171.502,348.151L172.905,342.866L174.336,337.727L182.639,305.64L184.366,300.74L186.148,295.917L188.006,291.104L189.94,286.303L191.948,281.515L194.03,276.74L196.184,271.98L198.41,267.236L200.706,262.508L203.071,257.798L205.504,253.107L208.005,248.436L210.572,243.785L213.204,239.155L215.9,234.549L218.659,229.966L221.48,225.408L224.362,220.875L227.304,216.369L230.305,211.891L233.364,207.441L236.48,203.021L239.651,198.632L242.877,194.275L246.157,189.95L249.49,185.659L252.874,181.402L256.309,177.181L259.793,172.997L263.326,168.851L266.907,164.743L270.533,160.675L274.206,156.648L277.923,152.662L281.683,148.719L285.485,144.82L289.329,140.965L293.214,137.157L297.137,133.395L301.099,129.681L305.098,126.015L309.133,122.4L313.204,118.835L317.308,115.322L321.446,111.861L325.615,108.455L329.816,105.103L334.047,101.808L338.307,98.5686L342.595,95.3875L346.909,92.2653L351.25,89.2029L355.616,86.2015L360.005,83.2619L364.418,80.3853L368.852,77.5726L373.307,74.8249L377.782,72.1431L382.276,69.5283L386.788,66.9815L391.316,64.5038L395.86,62.0961L400.419,59.7595L404.994,57.4936L407.346,56.3778L409.887,55.2222L415.451,52.8232L421.611,50.3178L428.269,47.7392L435.329,45.1184L442.698,42.4868L450.279,39.8763L457.976,37.3184L465.696,34.8451L473.341,32.4884L480.816,30.28L488.026,28.2518L494.877,26.4357L501.269,24.8649L504.274,24.179L507.127,23.5671L509.821,23.032L512.357,22.5755L545.703,17.7228L550.206,17.1979L554.69,16.7211L559.171,16.2901L563.651,15.9049L568.128,15.5652L572.602,15.2708L577.073,15.0217L581.54,14.8177L586.004,14.6586L590.464,14.5442L594.92,14.4744L599.37,14.4491L603.816,14.468L608.257,14.5311L612.692,14.6381L617.122,14.7889L621.545,14.9834L625.962,15.2214L630.372,15.5028L634.774,15.8273L639.17,16.1949L643.558,16.6053L647.938,17.0584L652.309,17.5541L656.673,18.0922L661.027,18.6725L665.372,19.2949L669.707,19.9593L674.033,20.6654L678.349,21.4131L682.654,22.2023L686.948,23.0328L691.232,23.9044L695.504,24.817L699.765,25.7704L704.013,26.7645L708.25,27.7992L712.474,28.8742L716.685,29.9894L720.883,31.1446L725.067,32.3397L729.238,33.5746L733.395,34.849L737.537,36.1628L741.665,37.5159L745.778,38.9081L749.875,40.3393L753.957,41.8093L758.024,43.3178L762.074,44.8649L766.107,46.4503L770.124,48.0738L774.124,49.7354L778.106,51.4348L782.071,53.1719L786.018,54.9466L789.946,56.7586L793.856,58.6078L797.747,60.4942L801.619,62.4174L805.471,64.3774L809.303,66.374L813.116,68.407L816.908,70.4764L820.679,72.5818L824.429,74.7233L828.158,76.9005L831.866,79.1134L835.551,81.3619L839.215,83.6456L842.855,85.9646L846.473,88.3186L850.068,90.7075L853.639,93.1311L857.187,95.5893L860.71,98.0819L864.21,100.609L867.684,103.17L871.134,105.765L874.558,108.393L877.957,111.056L881.33,113.751L884.677,116.481L887.997,119.243L891.291,122.038L894.557,124.866L897.797,127.727L901.008,130.621L904.191,133.546L907.347,136.504L910.473,139.494L913.571,142.516L916.639,145.57L919.678,148.655L922.688,151.772L925.667,154.92L928.615,158.099L931.533,161.31L934.42,164.55L937.276,167.822L940.1,171.124L942.892,174.457L945.652,177.819L948.379,181.212L951.073,184.635L953.734,188.087L956.362,191.569L958.956,195.08L961.516,198.621L964.042,202.19L966.533,205.789L968.989,209.416L971.409,213.072L973.794,216.757L976.144,220.469L978.456,224.21L980.733,227.979L982.973,231.776L985.175,235.6L987.34,239.452L989.468,243.331L991.557,247.237L993.608,251.171L995.62,255.131L997.594,259.118L999.528,263.132L1001.42,267.172L1003.27,271.227L1004.54,273.992L1005.83,276.727L1008.49,282.179L1011.19,287.618L1013.88,293.087L1016.5,298.616L1017.76,301.426L1018.99,304.262L1020.17,307.135L1021.3,310.047L1022.36,313.004L1023.35,316.004L1025.07,321.585L1026.7,327.116L1028.22,332.634L1029.65,338.174L1030.99,343.768L1032.23,349.448L1033.39,355.247L1034.47,361.197L1035.46,367.332L1036.37,373.684L1037.2,380.285L1037.96,387.169L1038.65,394.369L1039.26,401.918L1039.81,409.848L1040.3,418.243L1040.3,786.554L1040.3,797.733L1040.25,807.225L1040.2,811.506L1040.1,815.556L1039.95,819.439L1039.74,823.218L1039.46,826.953L1039.11,830.706L1038.66,834.536L1038.11,838.505L1037.45,842.674L1036.68,847.104L1035.78,851.858L1034.73,857.001L1033.75,861.591L1032.71,866.136L1031.63,870.636L1030.51,875.094L1029.33,879.508L1028.11,883.88L1026.85,888.21L1025.54,892.5L1024.18,896.749L1022.78,900.958L1021.33,905.128L1019.84,909.26L1018.3,913.354L1016.72,917.41L1015.09,921.43L1013.42,925.414L1011.71,929.362L1009.94,933.276L1008.14,937.156L1006.29,941.002L1004.4,944.816L1002.46,948.597L1000.48,952.347L998.454,956.065L996.386,959.754L994.275,963.412L992.121,967.042L989.923,970.643L987.684,974.216L985.401,977.763L983.076,981.283L980.709,984.776L978.299,988.245L975.848,991.689L973.354,995.109L970.819,998.506L968.242,1001.88L965.624,1005.23L962.965,1008.56L960.265,1011.87L957.523,1015.16L954.741,1018.43L951.918,1021.69L949.055,1024.92L946.151,1028.13L943.207,1031.33L940.223,1034.52L937.199,1037.68L934.135,1040.84L931.029,1043.98L924.707,1050.21L918.225,1056.4L911.588,1062.54L904.796,1068.65L897.85,1074.72L890.752,1080.76L883.503,1086.79L878.131,1091.14L872.699,1095.41L867.209,1099.59L861.662,1103.7L856.058,1107.72L850.399,1111.66L844.685,1115.51L838.916,1119.27L833.095,1122.95L827.221,1126.53L821.296,1130.02L815.32,1133.42L809.294,1136.72L803.218,1139.93L797.095,1143.04L790.924,1146.05L784.706,1148.96L778.443,1151.77L772.134,1154.48L765.782,1157.09L759.386,1159.59L752.947,1161.98L746.467,1164.27L739.946,1166.45L733.385,1168.52L726.784,1170.47L720.146,1172.31L713.469,1174.04L706.756,1175.66L700.007,1177.16L693.223,1178.53L686.405,1179.79L681.908,1180.54L677.319,1181.22L672.646,1181.84L667.892,1182.39L663.064,1182.89L658.169,1183.34L653.21,1183.73L648.195,1184.08L643.129,1184.38L638.018,1184.64L632.867,1184.85L627.679,1185.03L617.237,1185.28L606.726,1185.42L596.197,1185.46L585.698,1185.42L575.274,1185.33L564.974,1185.2L544.931,1184.95L535.285,1184.86L525.95,1184.83L519.292,1184.85L512.771,1184.93L500.1,1185.15L487.896,1185.4L481.948,1185.49L476.098,1185.54L470.336,1185.54ZM470.358,1181.54L476.079,1181.54L481.899,1181.49L487.825,1181.39L500.025,1181.15L512.713,1180.93L519.261,1180.85L525.949,1180.82L535.31,1180.86L544.975,1180.95L565.024,1181.2L575.316,1181.33L585.722,1181.42L596.197,1181.45L606.693,1181.41L617.163,1181.28L627.562,1181.03L632.715,1180.85L637.834,1180.64L642.911,1180.38L647.94,1180.09L652.914,1179.74L657.828,1179.35L662.677,1178.91L667.453,1178.42L672.15,1177.86L676.764,1177.26L681.287,1176.59L685.714,1175.85L692.461,1174.6L699.175,1173.24L705.855,1171.76L712.5,1170.16L719.108,1168.45L725.68,1166.62L732.214,1164.69L738.71,1162.64L745.167,1160.48L751.584,1158.22L757.959,1155.85L764.294,1153.37L770.585,1150.79L776.834,1148.11L783.038,1145.32L789.197,1142.44L795.311,1139.45L801.377,1136.37L807.397,1133.19L813.368,1129.92L819.291,1126.55L825.163,1123.1L830.985,1119.54L836.755,1115.9L842.473,1112.17L848.138,1108.36L853.748,1104.45L859.304,1100.47L864.805,1096.39L870.248,1092.24L875.635,1088.01L880.965,1083.69L888.176,1077.7L895.235,1071.69L902.14,1065.65L908.89,1059.59L915.483,1053.48L921.92,1047.34L928.2,1041.15L931.277,1038.04L934.316,1034.91L937.315,1031.77L940.274,1028.61L943.193,1025.44L946.071,1022.25L948.908,1019.05L951.705,1015.82L954.461,1012.58L957.176,1009.33L959.85,1006.05L962.483,1002.75L965.074,999.433L967.624,996.094L970.133,992.733L972.6,989.349L975.025,985.943L977.408,982.512L979.749,979.057L982.048,975.576L984.305,972.07L986.519,968.538L988.691,964.978L990.82,961.39L992.907,957.775L994.95,954.129L996.951,950.455L998.908,946.749L1000.82,943.013L1002.69,939.245L1004.52,935.444L1006.3,931.611L1008.05,927.743L1009.74,923.841L1011.39,919.904L1013,915.932L1014.57,911.922L1016.09,907.876L1017.56,903.792L1018.99,899.67L1020.38,895.508L1021.72,891.306L1023.01,887.065L1024.27,882.782L1025.47,878.457L1026.63,874.089L1027.75,869.679L1028.81,865.225L1029.84,860.726L1030.81,856.183L1031.85,851.087L1032.74,846.385L1033.51,842.017L1034.15,837.92L1034.69,834.03L1035.12,830.284L1035.47,826.615L1035.75,822.96L1035.95,819.253L1036.1,815.431L1036.19,811.43L1036.25,807.189L1036.29,797.723L1036.3,786.553L1036.3,418.359L1035.82,410.103L1035.27,402.219L1034.66,394.722L1033.98,387.578L1033.23,380.755L1032.4,374.219L1031.5,367.935L1030.52,361.872L1029.46,355.994L1028.31,350.269L1027.08,344.662L1025.76,339.139L1024.35,333.667L1022.85,328.212L1021.24,322.739L1019.54,317.223L1018.58,314.31L1017.55,311.446L1016.45,308.616L1015.3,305.817L1014.1,303.043L1012.86,300.295L1010.28,294.826L1007.6,289.392L1004.9,283.947L1002.22,278.46L1000.91,275.681L999.632,272.891L997.79,268.852L995.913,264.85L993.997,260.875L992.042,256.926L990.049,253.003L988.017,249.107L985.948,245.237L983.841,241.395L981.696,237.579L979.514,233.791L977.296,230.031L975.041,226.297L972.75,222.592L970.423,218.914L968.06,215.265L965.663,211.643L963.23,208.05L960.762,204.485L958.261,200.949L955.725,197.442L953.155,193.964L950.552,190.515L947.916,187.095L945.246,183.704L942.545,180.343L939.811,177.012L937.045,173.71L934.247,170.439L931.418,167.198L928.558,163.987L925.667,160.807L922.746,157.657L919.794,154.538L916.813,151.45L913.802,148.393L910.762,145.368L907.692,142.373L904.595,139.411L901.468,136.48L898.314,133.581L895.132,130.714L891.922,127.88L888.686,125.077L885.422,122.307L882.132,119.57L878.816,116.866L875.473,114.195L872.105,111.557L868.712,108.952L865.294,106.38L861.851,103.842L858.383,101.338L854.891,98.8683L851.376,96.4323L847.836,94.0305L844.274,91.6631L840.689,89.3303L837.08,87.0321L833.45,84.7688L829.798,82.5406L826.124,80.3475L822.428,78.1897L818.711,76.0674L814.974,73.9808L811.215,71.9299L807.437,69.915L803.639,67.9362L799.821,65.9937L795.983,64.0876L792.127,62.218L788.252,60.3852L784.359,58.5893L780.447,56.8305L776.517,55.1088L772.57,53.4245L768.606,51.7777L764.625,50.1686L760.627,48.5973L756.613,47.0639L752.583,45.5687L748.537,44.1118L744.476,42.6934L740.4,41.3135L736.309,39.9724L732.203,38.6703L728.083,37.4071L723.949,36.1833L719.802,34.9987L715.641,33.8538L711.468,32.7485L707.281,31.683L703.082,30.6576L698.871,29.6723L694.649,28.7274L690.415,27.8229L686.169,26.959L681.913,26.1359L677.646,25.3538L673.369,24.6127L669.082,23.9129L664.785,23.2545L660.478,22.6376L656.163,22.0624L651.839,21.5291L647.506,21.0379L643.166,20.5888L638.817,20.182L634.461,19.8178L630.097,19.4962L625.726,19.2173L621.349,18.9815L616.966,18.7887L612.576,18.6392L608.18,18.5331L603.779,18.4706L599.373,18.4519L594.962,18.477L590.547,18.5461L586.127,18.6595L581.703,18.8172L577.275,19.0194L572.844,19.2663L568.41,19.558L563.974,19.8946L559.534,20.2764L555.093,20.7035L550.65,21.176L546.223,21.692L513,26.5269L510.565,26.9651L507.937,27.4872L505.14,28.0873L502.192,28.76L495.868,30.3142L489.081,32.1132L481.925,34.1261L474.497,36.3204L466.896,38.6638L459.218,41.1237L451.561,43.668L444.023,46.2641L436.699,48.8796L429.688,51.4819L423.088,54.0382L416.997,56.5153L411.508,58.8822L409.032,60.0081L406.74,61.0956L402.22,63.3341L397.71,65.6458L393.214,68.0281L388.732,70.4803L384.267,73.0012L379.818,75.5898L375.387,78.2451L370.975,80.9662L366.583,83.752L362.212,86.6015L357.863,89.5137L353.538,92.4876L349.237,95.5222L344.96,98.6164L340.711,101.769L336.488,104.98L332.294,108.247L328.13,111.569L323.996,114.947L319.893,118.378L315.824,121.861L311.787,125.396L307.786,128.981L303.82,132.616L299.891,136.3L296,140.031L292.148,143.808L288.336,147.631L284.564,151.498L280.835,155.408L277.148,159.361L273.506,163.355L269.909,167.39L266.358,171.464L262.855,175.576L259.399,179.725L255.993,183.911L252.637,188.132L249.333,192.387L246.081,196.675L242.882,200.995L239.738,205.347L236.649,209.728L233.617,214.139L230.643,218.578L227.727,223.043L224.871,227.535L222.076,232.052L219.342,236.592L216.671,241.156L214.064,245.741L211.522,250.347L209.046,254.973L206.636,259.618L204.295,264.281L202.022,268.96L199.82,273.655L197.688,278.365L195.628,283.089L193.642,287.825L191.73,292.573L189.892,297.331L188.131,302.099L186.471,306.809L178.202,338.765L176.768,343.916L175.377,349.154L174.03,354.495L172.734,359.922L171.495,365.421L170.32,370.977L169.218,376.575L168.194,382.199L167.257,387.835L166.412,393.468L165.668,399.081L165.032,404.66L164.51,410.19L164.109,415.656L163.837,421.041L163.7,426.332L163.7,470.324L163.784,477.05L164.011,483.747L164.379,490.424L164.883,497.08L165.52,503.716L166.289,510.331L167.185,516.924L168.205,523.495L169.347,530.044L170.607,536.57L171.981,543.073L173.468,549.553L175.063,556.009L176.764,562.44L178.567,568.847L180.469,575.228L182.468,581.584L184.559,587.914L186.741,594.217L189.009,600.493L191.36,606.742L193.792,612.963L196.301,619.156L198.884,625.32L201.538,631.455L204.26,637.561L207.046,643.637L209.893,649.682L212.799,655.696L215.759,661.68L218.772,667.631L221.832,673.548L224.157,677.921L226.561,682.287L229.047,686.642L231.612,690.981L234.257,695.3L236.982,699.593L239.786,703.855L242.669,708.081L245.63,712.266L248.67,716.405L251.787,720.492L254.982,724.524L258.253,728.494L261.601,732.398L265.026,736.231L268.526,739.988L272.102,743.663L275.752,747.251L279.478,750.749L283.277,754.15L287.151,757.449L291.097,760.642L295.117,763.724L299.21,766.69L303.375,769.534L307.618,772.257L309.757,773.564L311.921,774.841L314.102,776.084L316.301,777.292L318.517,778.466L320.751,779.603L323.003,780.704L325.273,781.769L327.56,782.795L329.865,783.783L332.187,784.733L334.523,785.642L336.439,786.342L338.357,786.994L340.277,787.601L342.201,788.165L344.129,788.686L346.06,789.167L347.995,789.608L349.925,790.011L353.825,790.716L357.732,791.287L361.657,791.741L365.601,792.088L369.563,792.342L373.544,792.515L377.544,792.619L381.56,792.667L389.665,792.648L397.827,792.558L400.9,792.486L403.949,792.343L406.982,792.132L409.999,791.852L413,791.505L415.982,791.09L418.947,790.61L421.892,790.065L424.818,789.455L427.723,788.781L430.606,788.045L433.468,787.247L436.307,786.387L439.122,785.467L441.912,784.488L444.678,783.45L447.418,782.353L450.131,781.2L452.816,779.99L455.473,778.724L458.102,777.404L460.7,776.03L463.268,774.602L465.805,773.122L468.309,771.591L470.781,770.009L473.219,768.377L475.623,766.695L477.991,764.965L480.324,763.188L482.619,761.364L484.877,759.494L487.097,757.579L489.278,755.62L491.419,753.617L493.519,751.572L495.578,749.485L497.594,747.356L499.568,745.188L501.498,742.98L503.383,740.733L505.223,738.449L507.017,736.128L508.764,733.771L510.463,731.378L512.114,728.951L513.716,726.491L515.268,723.997L516.769,721.471L518.219,718.915L519.616,716.327L520.961,713.711L522.251,711.065L523.488,708.392L524.668,705.691L525.793,702.964L526.861,700.212L527.872,697.435L528.824,694.634L529.717,691.81L530.55,688.964L531.322,686.096L532.033,683.208L532.684,680.293L533.24,677.614L533.747,674.981L534.204,672.389L534.606,669.829L534.953,667.294L535.242,664.777L535.47,662.269L535.636,659.762L535.737,657.249L535.771,654.72L535.735,652.169L535.626,649.586L535.444,646.963L535.184,644.293L534.844,641.567L534.422,638.778L533.717,634.843L532.853,630.745L531.838,626.507L530.685,622.157L529.405,617.722L528.009,613.232L526.508,608.714L524.913,604.196L523.238,599.706L521.492,595.272L519.687,590.921L517.835,586.68L515.949,582.579L514.039,578.645L512.117,574.906L510.193,571.383L508.16,567.838L506.094,564.351L504.003,560.921L501.895,557.543L497.641,550.902L493.384,544.392L489.172,537.959L485.054,531.559L483.041,528.349L481.072,525.131L479.15,521.894L477.282,518.634L475.473,515.344L473.731,512.017L472.062,508.649L470.472,505.232L468.967,501.761L467.554,498.23L466.24,494.632L465.031,490.963L463.933,487.217L462.954,483.388L462.098,479.469L461.375,475.466L461.062,473.414L460.785,471.345L460.545,469.25L460.34,467.128L460.173,464.978L460.045,462.8L459.954,460.593L459.904,458.36L459.828,450.001L459.835,446.199L459.891,442.598L460.013,439.156L460.217,435.835L460.518,432.599L460.931,429.412L461.473,426.238L462.158,423.043L463.001,419.792L464.015,416.451L465.213,412.984L466.61,409.352L468.22,405.52L470.056,401.449L471.191,399.057L472.374,396.665L473.603,394.272L474.878,391.883L476.198,389.503L477.56,387.135L478.963,384.782L480.406,382.45L481.887,380.142L483.405,377.862L484.959,375.614L486.547,373.403L488.168,371.231L489.82,369.104L491.502,367.025L493.213,364.997L495.373,362.554L497.565,360.155L499.796,357.796L502.068,355.481L504.383,353.212L506.743,350.994L509.149,348.828L511.604,346.719L514.11,344.67L516.667,342.683L519.278,340.762L521.945,338.91L524.67,337.131L527.453,335.427L530.298,333.803L533.205,332.26L536.392,330.698L539.77,329.169L543.314,327.678L547,326.233L550.804,324.841L554.704,323.507L558.674,322.24L562.691,321.045L566.731,319.931L570.769,318.903L574.783,317.97L578.748,317.138L582.64,316.415L586.436,315.808L590.113,315.325L593.64,314.974L596.297,314.784L598.926,314.655L601.534,314.587L604.124,314.579L606.697,314.63L609.256,314.739L611.803,314.906L614.339,315.128L616.867,315.406L619.39,315.738L621.909,316.124L624.427,316.562L626.945,317.051L629.467,317.591L631.993,318.18L634.53,318.818L637.698,319.679L640.823,320.597L643.902,321.573L646.937,322.605L649.926,323.692L652.87,324.835L655.768,326.032L658.621,327.282L661.427,328.586L664.187,329.942L666.901,331.349L669.568,332.808L672.189,334.318L674.762,335.877L677.288,337.485L679.768,339.141L682.199,340.845L684.583,342.597L686.919,344.395L689.208,346.238L691.448,348.127L693.639,350.06L695.783,352.036L697.877,354.056L699.923,356.118L701.92,358.222L703.867,360.367L705.766,362.552L707.615,364.776L709.414,367.04L711.164,369.341L712.863,371.681L714.513,374.057L716.112,376.47L717.661,378.918L719.16,381.4L720.608,383.917L722.005,386.468L723.351,389.051L724.647,391.666L725.891,394.313L727.084,396.991L728.225,399.698L729.315,402.435L730.353,405.201L731.34,407.995L732.274,410.816L733.157,413.664L733.987,416.538L734.765,419.438L735.491,422.362L736.164,425.31L736.784,428.282L737.352,431.277L737.866,434.293L738.328,437.331L738.736,440.39L739.092,443.469L739.393,446.567L739.641,449.684L739.836,452.82L739.977,455.972L740.063,459.142L740.096,462.321L740.096,738.526L740.061,745.566L739.938,752.24L739.819,755.489L739.651,758.688L739.422,761.856L739.124,765.007L738.748,768.155L738.284,771.312L737.722,774.494L737.054,777.712L736.27,780.981L735.362,784.314L734.32,787.724L733.138,791.221L732.143,793.941L731.095,796.628L729.996,799.286L728.844,801.915L727.642,804.514L726.389,807.083L725.087,809.62L723.736,812.127L722.337,814.601L720.891,817.044L719.399,819.454L717.861,821.83L716.279,824.173L714.652,826.482L712.982,828.757L711.27,830.996L709.516,833.201L707.72,835.369L705.885,837.501L704.01,839.597L702.097,841.655L700.145,843.675L698.157,845.658L696.132,847.602L694.072,849.507L691.976,851.373L689.847,853.198L687.684,854.984L685.488,856.728L683.261,858.432L681.003,860.094L678.714,861.714L676.396,863.291L674.049,864.825L671.674,866.316L669.272,867.763L666.843,869.165L664.389,870.523L661.909,871.836L659.405,873.103L656.878,874.323L654.328,875.498L651.756,876.625L649.162,877.704L646.549,878.736L643.915,879.719L641.262,880.654L638.592,881.539L635.903,882.374L633.199,883.16L630.478,883.894L627.742,884.578L624.991,885.209L622.227,885.789L619.45,886.316L616.66,886.791L613.86,887.212L611.048,887.579L608.227,887.891L605.397,888.149L602.558,888.352L599.712,888.499L596.859,888.59L594.008,888.624L461.912,888.624L455.15,888.669L448.579,888.813L445.36,888.94L442.168,889.113L439,889.338L435.85,889.624L432.711,889.978L429.578,890.405L426.442,890.914L423.298,891.511L420.139,892.203L416.957,892.998L413.747,893.904L410.493,894.929L408.203,895.709L405.932,896.529L403.684,897.384L401.46,898.275L399.261,899.202L397.086,900.164L394.935,901.16L392.808,902.19L390.706,903.254L388.629,904.351L386.577,905.48L384.549,906.642L382.547,907.835L380.569,909.06L378.617,910.315L376.691,911.601L374.789,912.917L372.914,914.262L371.064,915.636L369.24,917.039L367.442,918.469L365.67,919.928L363.924,921.413L362.205,922.925L360.512,924.463L358.852,926.022L355.594,929.231L352.45,932.532L349.415,935.927L346.49,939.412L343.675,942.983L340.973,946.637L338.384,950.37L335.909,954.178L333.55,958.057L331.306,962.004L329.18,966.015L327.172,970.087L325.284,974.214L323.516,978.395L321.869,982.624L320.345,986.899L318.944,991.215L317.668,995.568L316.517,999.955L315.493,1004.37L314.596,1008.82L313.828,1013.28L313.19,1017.77L312.682,1022.27L312.305,1026.78L312.061,1031.29L311.951,1035.81L311.975,1040.34L312.134,1044.85L312.43,1049.36L312.863,1053.86L313.435,1058.34L314.146,1062.81L314.997,1067.25L315.989,1071.66L317.126,1076.05L317.745,1078.23L318.401,1080.4L319.094,1082.56L319.823,1084.71L320.589,1086.85L321.39,1088.98L322.228,1091.1L323.103,1093.21L324.015,1095.3L324.963,1097.39L325.949,1099.46L326.972,1101.51L328.032,1103.55L329.129,1105.58L330.264,1107.59L331.436,1109.59L332.647,1111.57L333.895,1113.54L335.181,1115.49L336.506,1117.42L337.868,1119.33L339.269,1121.23L340.709,1123.11L342.188,1124.97L343.705,1126.81L345.262,1128.63L346.857,1130.42L348.492,1132.2L350.166,1133.96L351.881,1135.7L354.485,1138.24L357.076,1140.7L359.655,1143.06L362.222,1145.32L364.778,1147.5L367.324,1149.59L369.861,1151.6L372.388,1153.52L374.908,1155.35L377.421,1157.11L379.928,1158.79L382.429,1160.39L384.925,1161.91L387.417,1163.36L389.907,1164.74L392.394,1166.05L394.881,1167.29L397.366,1168.47L399.853,1169.58L402.341,1170.62L404.831,1171.61L407.324,1172.54L409.821,1173.41L412.323,1174.22L414.831,1174.99L417.346,1175.69L419.869,1176.35L422.399,1176.96L424.94,1177.53L427.49,1178.04L430.052,1178.52L432.625,1178.95L435.212,1179.34L437.812,1179.69L440.426,1180.01L443.049,1180.29L448.364,1180.75L453.742,1181.1L459.196,1181.33L464.733,1181.48L470.358,1181.54Z" style="fill:rgb(170,222,0);"/>
        </g>
    </g>
</svg>
