<?xml version="1.0" standalone="no"?>
<!DOCTYPE svg PUBLIC "-//W3C//DTD SVG 1.1//EN" "http://www.w3.org/Graphics/SVG/1.1/DTD/svg11.dtd">
<svg width="426px" height="426px" version="1.1" xmlns="http://www.w3.org/2000/svg" xmlns:xlink="http://www.w3.org/1999/xlink" xml:space="preserve" style="fill-rule:evenodd;clip-rule:evenodd;stroke-miterlimit:1.41421;">
    <g>
        <g>
            <path d="M241.59,61.3022L293.728,91.4038L223.274,132.078L223.272,58.2925C229.742,58.838 236.12,59.9099 241.59,61.3022Z" style="fill:white;stroke-width:0.67px;stroke:white;"/>
        </g>
        <g>
            <path d="M241.59,61.3022L293.728,91.4038L223.274,132.078L223.272,58.2925C229.742,58.838 236.12,59.9099 241.59,61.3022Z" style="fill:rgb(111,156,214);fill-opacity:0.854902;stroke-width:0.67px;stroke:rgb(111,156,214);stroke-opacity:0.85098;"/>
        </g>
        <g>
            <path d="M293.728,91.4038L293.73,172.755L223.274,132.078L293.728,91.4038Z" style="fill:white;stroke-width:0.67px;stroke:white;"/>
        </g>
        <g>
            <path d="M100.023,203.232L152.821,172.751L152.823,254.103L110.244,229.52C106.009,220.995 102.413,212.215 100.023,203.232Z" style="fill:white;stroke-width:0.67px;stroke:white;"/>
        </g>
        <g>
            <path d="M300.763,331.4L293.734,335.458L293.732,254.107L329.197,274.583C329.036,275.752 328.72,277.143 328.128,279.987C323.827,300.574 314.598,317.082 300.763,331.4Z" style="fill:white;stroke-width:0.67px;stroke:white;"/>
        </g>
        <g>
            <path d="M223.281,368.602L223.279,294.781L293.734,335.458L239.833,366.577L236.266,367.334C232.15,368.055 227.546,368.447 223.281,368.602Z" style="fill:white;stroke-width:0.67px;stroke:white;"/>
        </g>
        <g>
            <path d="M210.584,368.802C204.407,368.799 198.696,368.667 193.6,368.667C177.127,368.667 165.492,370.382 152.826,361.236L152.825,335.454L210.584,368.802Z" style="fill:white;stroke-width:0.67px;stroke:white;"/>
        </g>
        <g>
            <path d="M293.728,91.4038L293.728,89.1964L295.193,90.5579L293.728,91.4038Z" style="fill:rgb(86,139,207);stroke-width:0.67px;stroke:rgb(86,139,207);"/>
        </g>
        <g>
            <path d="M293.728,91.4038L241.59,61.3022C260.787,66.0065 278.529,75.3928 293.728,89.1964L293.728,91.4038Z" style="fill:rgb(86,139,207);stroke-width:0.67px;stroke:rgb(86,139,207);"/>
        </g>
        <g>
            <path d="M299.209,94.5683L293.728,91.4038L295.193,90.5579L295.876,91.1924L299.209,94.5683Z" style="fill:rgb(86,139,207);stroke-width:0.67px;stroke:rgb(86,139,207);"/>
        </g>
        <g>
            <path d="M152.818,91.4L152.818,74.1162C156.164,72.0699 158.869,70.5937 161.6,69.2651C167.925,66.1931 180.503,61.609 187.309,60.457L198.933,58.7157C202.613,58.268 206.288,57.9958 210.853,57.8959L152.818,91.4Z" style="fill:rgb(86,139,207);stroke-width:0.67px;stroke:rgb(86,139,207);"/>
        </g>
        <g>
            <path d="M152.818,91.4L139.471,83.6937C143.939,80.0009 148.504,76.7296 152.818,74.1162L152.818,91.4Z" style="fill:rgb(86,139,207);stroke-width:0.67px;stroke:rgb(86,139,207);stroke-opacity:0.611765;"/>
        </g>
        <g>
            <path d="M223.272,58.2925L223.274,132.078L152.818,91.4L210.853,57.8959C214.829,57.7829 218.791,57.8781 223.272,58.2925Z" style="fill:rgb(86,139,207);stroke-width:0.67px;stroke:rgb(86,139,207);"/>
        </g>
        <g>
            <path d="M328.69,152.572L293.73,172.755L293.728,91.4038L299.209,94.5683C310.926,107.024 319.755,121.642 325.002,138.268C326.412,142.732 327.856,147.992 328.69,152.572Z" style="fill:rgb(86,139,207);stroke-width:0.67px;stroke:rgb(86,139,207);"/>
        </g>
        <g>
            <path d="M293.728,91.4038L293.73,172.755L223.274,132.078L293.728,91.4038Z" style="fill:rgb(86,139,207);fill-opacity:0.85098;stroke-width:0.67px;stroke:rgb(111,156,214);stroke-opacity:0.85098;"/>
        </g>
        <g>
            <path d="M330.133,193.773L293.73,172.755L328.69,152.572C329.626,157.275 330.128,161.313 330.133,164.934L330.133,193.773Z" style="fill:rgb(86,139,207);stroke-width:0.67px;stroke:rgb(86,139,207);"/>
        </g>
        <g>
            <path d="M181.658,156.103L152.821,172.751L152.818,91.4L223.274,132.078L213.619,137.651L211.562,137.702C206.751,138.096 200.074,140.284 195.776,142.481C191.68,144.572 188.288,147.622 185.28,151.078C184.074,152.476 182.941,154.036 181.658,156.103Z" style="fill:rgb(18,43,86);stroke-width:0.67px;stroke:rgb(18,43,86);"/>
        </g>
        <g>
            <path d="M112.327,114.776L152.818,91.4L152.821,172.751L100.665,142.639L102.624,135.068C104.976,128.233 108.22,121.49 112.327,114.776Z" style="fill:rgb(86,139,207);stroke-width:0.67px;stroke:rgb(86,139,207);"/>
        </g>
        <g>
            <path d="M250.133,197.924L250.133,176.668C250.102,159.304 240.962,144.622 223.274,139.207L223.274,132.078L293.73,172.755L250.133,197.924Z" style="fill:rgb(29,62,118);stroke-width:0.67px;stroke:rgb(29,62,118);"/>
        </g>
        <g>
            <path d="M179.417,188.107L152.821,172.751L181.658,156.103C180.888,157.294 179.968,158.993 179.189,160.668C176.437,166.588 176.458,169.254 176.533,175.601C176.597,180.325 177.675,184.263 179.417,188.107Z" style="fill:rgb(29,62,118);stroke-width:0.67px;stroke:rgb(29,62,118);"/>
        </g>
        <g>
            <path d="M223.274,139.207L222.4,138.94C219.728,138.244 217.062,137.721 213.619,137.651L223.274,132.078L223.274,139.207Z" style="fill:rgb(29,62,118);stroke-width:0.67px;stroke:rgb(29,62,118);"/>
        </g>
        <g>
            <path d="M330.133,233.092L293.732,254.107L293.73,172.755L330.133,193.773L330.133,233.092Z" style="fill:rgb(18,43,86);stroke-width:0.67px;stroke:rgb(18,43,86);"/>
        </g>
        <g>
            <path d="M250.133,197.924L293.73,172.755L293.732,254.107L250.133,228.935L250.133,197.924Z" style="fill:rgb(24,70,148);stroke-width:0.67px;stroke:rgb(24,70,148);"/>
        </g>
        <g>
            <path d="M329.197,274.583L293.732,254.107L330.133,233.092L330.133,263.068C329.626,270.621 329.586,272.379 329.197,274.583Z" style="fill:rgb(86,139,207);stroke-width:0.67px;stroke:rgb(86,139,207);"/>
        </g>
        <g>
            <path d="M100.023,203.232C97.8434,195.465 96.5472,187.22 96.5332,178.801L96.5332,167.068C96.6292,159.548 98.3572,150.822 100.416,143.601L100.665,142.639L152.821,172.751L100.023,203.232Z" style="fill:rgb(86,139,207);stroke-width:0.67px;stroke:rgb(86,139,207);"/>
        </g>
        <g>
            <path d="M295.571,336.519L293.734,335.458L300.763,331.4C298.869,333.38 296.91,335.297 295.571,336.519Z" style="fill:rgb(86,139,207);stroke-width:0.67px;stroke:rgb(86,139,207);"/>
        </g>
        <g>
            <path d="M195.477,229.478L152.823,254.103L152.821,172.751L179.417,188.107C182.015,193.912 186.253,199.054 189.866,205.468C192.629,210.364 194.119,214.845 195.015,220.391C195.435,222.945 195.636,226.21 195.477,229.478Z" style="fill:rgb(24,70,148);stroke-width:0.67px;stroke:rgb(24,70,148);"/>
        </g>
        <g>
            <path d="M100.023,203.232L152.821,172.751L152.823,254.103L110.244,229.52C106.009,220.995 102.413,212.215 100.023,203.232Z" style="fill:rgb(86,139,207);fill-opacity:0.85098;stroke-width:0.67px;stroke:rgb(103,150,212);stroke-opacity:0.847059;"/>
        </g>
        <g>
            <path d="M250.133,228.935L293.732,254.107L223.279,294.781L223.278,287.921C234.727,284.252 244.245,275.606 248.309,264.134C250.069,259.164 250.122,255.42 250.133,250.268L250.133,228.935Z" style="fill:rgb(29,62,118);stroke-width:0.67px;stroke:rgb(29,62,118);"/>
        </g>
        <g>
            <path d="M223.279,294.781L214.349,289.625C217.197,289.408 219.991,288.882 223.278,287.921L223.279,294.781Z" style="fill:rgb(29,62,118);stroke-width:0.67px;stroke:rgb(29,62,118);"/>
        </g>
        <g>
            <path d="M169.291,263.611L152.823,254.103L195.477,229.478C195.457,231.071 195.277,232.812 194.965,234.268C192.07,247.944 182.141,259.676 169.291,263.611Z" style="fill:rgb(29,62,118);stroke-width:0.67px;stroke:rgb(29,62,118);"/>
        </g>
        <g>
            <path d="M300.763,331.4L293.734,335.458L293.732,254.107L329.197,274.583C329.036,275.752 328.72,277.143 328.128,279.987C323.827,300.574 314.598,317.082 300.763,331.4Z" style="fill:rgb(86,139,207);fill-opacity:0.85098;stroke-width:0.67px;stroke:rgb(86,139,207);stroke-opacity:0.85098;"/>
        </g>
        <g>
            <path d="M293.732,254.107L293.734,335.458L223.279,294.781L293.732,254.107Z" style="fill:rgb(86,139,207);stroke-width:0.67px;stroke:rgb(86,139,207);"/>
        </g>
        <g>
            <path d="M139.237,261.946C127.265,256.217 118.097,244.713 112.085,233.201L110.244,229.52L152.823,254.103L139.237,261.946Z" style="fill:rgb(86,139,207);stroke-width:0.67px;stroke:rgb(86,139,207);"/>
        </g>
        <g>
            <path d="M214.349,289.625L223.279,294.781L152.825,335.454L152.824,296.441C155.526,294.456 158.924,292.68 162.667,291.441C167.392,289.873 171.637,289.745 176.533,289.734L211.733,289.734L214.349,289.625Z" style="fill:rgb(24,70,148);stroke-width:0.67px;stroke:rgb(24,70,148);"/>
        </g>
        <g>
            <path d="M169.291,263.611C165.988,264.64 162.789,265.161 159.467,265.201C157.279,265.225 155.113,265.262 152.823,265.147L152.823,254.103L169.291,263.611Z" style="fill:rgb(29,62,118);stroke-width:0.67px;stroke:rgb(29,62,118);"/>
        </g>
        <g>
            <path d="M152.825,335.454L136.269,325.896C137.156,314.787 142.79,303.865 152.824,296.441L152.825,335.454Z" style="fill:rgb(86,139,207);stroke-width:0.67px;stroke:rgb(86,139,207);"/>
        </g>
        <g>
            <path d="M152.823,265.147C149.392,265.067 145.873,264.637 142.4,263.324C141.329,262.918 140.279,262.466 139.237,261.946L152.823,254.103L152.823,265.147Z" style="fill:rgb(86,139,207);stroke-width:0.67px;stroke:rgb(86,139,207);"/>
        </g>
        <g>
            <path d="M223.281,368.602L223.279,294.781L293.734,335.458L239.833,366.577L236.266,367.334C232.15,368.055 227.546,368.447 223.281,368.602Z" style="fill:rgb(86,139,207);fill-opacity:0.85098;stroke-width:0.67px;stroke:rgb(86,139,207);stroke-opacity:0.85098;"/>
        </g>
        <g>
            <path d="M223.281,368.602C218.761,368.801 214.192,368.839 210.584,368.802L152.825,335.454L223.279,294.781L223.281,368.602Z" style="fill:rgb(86,139,207);stroke-width:0.67px;stroke:rgb(86,139,207);"/>
        </g>
        <g>
            <path d="M295.571,336.519L293.734,338.183L293.734,335.458L295.571,336.519Z" style="fill:rgb(86,139,207);stroke-width:0.67px;stroke:rgb(86,139,207);"/>
        </g>
        <g>
            <path d="M239.833,366.577L293.734,335.458L293.734,338.183C291.783,339.95 290.186,341.314 288.544,342.662C274.316,354.352 257.7,362.879 239.833,366.577Z" style="fill:rgb(86,139,207);stroke-width:0.67px;stroke-linecap:round;stroke:rgb(86,139,207);"/>
        </g>
        <g>
            <path d="M138.65,343.638C136.472,338.024 135.708,332.005 136.269,325.896L152.825,335.454L138.65,343.638Z" style="fill:rgb(86,139,207);stroke-width:0.67px;stroke:rgb(86,139,207);"/>
        </g>
        <g>
            <path d="M210.584,368.802C204.407,368.799 198.696,368.667 193.6,368.667C177.127,368.667 165.492,370.382 152.826,361.236L152.825,335.454L210.584,368.802Z" style="fill:rgb(86,139,207);fill-opacity:0.901961;stroke-width:0.67px;stroke:rgb(86,139,207);stroke-opacity:0.901961;"/>
        </g>
        <g>
            <path d="M152.826,361.236C151.003,359.946 148.943,358.193 146.837,356.099C143.087,352.369 140.364,348.074 138.65,343.638L152.825,335.454L152.826,361.236Z" style="fill:rgb(86,139,207);stroke-width:0.67px;stroke:rgb(86,139,207);"/>
        </g>
        <g>
            <path d="M112.327,114.776C119.446,103.106 128.976,92.2672 139.471,83.6937L152.818,91.4L112.327,114.776Z" style="fill:rgb(103,150,212);fill-opacity:0.901961;stroke-width:0.67px;stroke:rgb(103,150,212);stroke-opacity:0.898039;"/>
        </g>
    </g>
</svg>
