<?xml version="1.0" standalone="no"?>
<!DOCTYPE svg PUBLIC "-//W3C//DTD SVG 1.1//EN" "http://www.w3.org/Graphics/SVG/1.1/DTD/svg11.dtd">
<svg width="400px" height="800px" version="1.1" xmlns="http://www.w3.org/2000/svg" xmlns:xlink="http://www.w3.org/1999/xlink" xml:space="preserve" style="fill-rule:evenodd;clip-rule:evenodd;stroke-linejoin:round;stroke-miterlimit:1.41421;">
    <g>
        <g>
            <g>
                <g>
                    <path d="M23.3598,151.789C23.2711,151.793 23.1836,151.803 23.0938,151.803C20.0085,151.803 17.5074,149.301 17.5074,146.216L17.5074,122.274C17.5074,119.189 20.0085,116.688 23.0938,116.688C23.1836,116.688 23.2711,116.697 23.3598,116.701L23.3598,151.789Z" style="fill:rgb(221,221,221);"/>
                </g>
                <g>
                    <path d="M23.3598,239.572L18.5669,238.014L18.5669,184.172L23.3598,182.615L23.3598,239.572Z" style="fill:rgb(221,221,221);"/>
                </g>
                <g>
                    <path d="M23.3598,308.737L18.5669,307.18L18.5669,253.338L23.3598,251.78L23.3598,308.737Z" style="fill:rgb(221,221,221);"/>
                </g>
                <g>
                    <path d="M377.7,239.572L382.493,238.014L382.493,184.172L377.7,182.615L377.7,239.572Z" style="fill:rgb(221,221,221);"/>
                </g>
                <path d="M70.1795,28.3688L330.88,28.3688C357.325,28.3688 378.764,49.8071 378.764,76.2525L378.764,723.747C378.764,750.193 357.325,771.631 330.88,771.631L70.1795,771.631C43.734,771.631 22.2958,750.193 22.2958,723.747L22.2958,76.2525C22.2958,49.8071 43.734,28.3688 70.1795,28.3688Z" style="fill:rgb(220,222,229);"/>
                <path d="M200.796,757.412C185.582,757.412 173.249,745.079 173.249,729.866C173.249,714.652 185.582,702.319 200.796,702.319C216.009,702.319 228.342,714.652 228.342,729.866C228.342,745.079 216.009,757.412 200.796,757.412ZM200.796,705.352C187.257,705.352 176.282,716.327 176.282,729.866C176.282,743.405 187.257,754.38 200.796,754.38C214.334,754.38 225.31,743.405 225.31,729.866C225.31,716.327 214.334,705.352 200.796,705.352Z" style="fill:rgb(187,192,204);"/>
                <rect x="39.8531" y="115.092" width="321.353" height="571.945" style="fill:rgb(52,55,63);"/>
                <path d="M176.322,66.6758L225.27,66.6758C226.886,66.6758 228.196,67.9859 228.196,69.602C228.196,71.2182 226.886,72.5282 225.27,72.5282L176.322,72.5282C174.706,72.5282 173.396,71.2182 173.396,69.602C173.396,67.9859 174.706,66.6758 176.322,66.6758Z" style="fill:rgb(160,165,178);"/>
                <path d="M142.803,64.0156C145.889,64.0156 148.39,66.5167 148.39,69.602C148.39,72.6873 145.889,75.1884 142.803,75.1884C139.718,75.1884 137.217,72.6873 137.217,69.602C137.217,66.5167 139.718,64.0156 142.803,64.0156Z" style="fill:rgb(160,165,178);"/>
                <path d="M200.796,42.285C202.954,42.285 204.703,44.0343 204.703,46.1922C204.703,48.3501 202.954,50.0993 200.796,50.0993C198.638,50.0993 196.889,48.3501 196.889,46.1922C196.889,44.0343 198.638,42.285 200.796,42.285Z" style="fill:rgb(160,165,178);"/>
            </g>
        </g>
    </g>
</svg>
